PathFileType	4	(X/Y/Z)	/Users/niels/Desktop/University/Third Semester/Perception and Action/Exam/Gymnastics Motion Tracking/Code for Gym Tracking/Analyzed Data/Webcam_Backflip/id8_1_baseline_Sports2D/id8_1_baseline_Sports2D_px_person00.trc
DataRate	CameraRate	NumFrames	NumMarkers	Units	OrigDataRate	OrigDataStartFrame	OrigNumFrames
29.8	29.8	9	22	m	29.8	131	150
Frame#	Time	Hip			RHip			RKnee			RAnkle			RBigToe			RSmallToe			RHeel			LHip			LKnee			LAnkle			LBigToe			LSmallToe			LHeel			Neck			Head			Nose			RShoulder			RElbow			RWrist			LShoulder			LElbow			LWrist		
		X1	Y1	Z1	X2	Y2	Z2	X3	Y3	Z3	X4	Y4	Z4	X5	Y5	Z5	X6	Y6	Z6	X7	Y7	Z7	X8	Y8	Z8	X9	Y9	Z9	X10	Y10	Z10	X11	Y11	Z11	X12	Y12	Z12	X13	Y13	Z13	X14	Y14	Z14	X15	Y15	Z15	X16	Y16	Z16	X17	Y17	Z17	X18	Y18	Z18	X19	Y19	Z19	X20	Y20	Z20	X21	Y21	Z21	X22	Y22	Z22
131	4.395973154362416	0.9137248469906556	-0.5842518234557804	0.0	0.8976160765496748	-0.5868372005814396	0.0	0.894555117765664	-0.6791880773250342	0.0	0.8883162650902966	-0.7752574508039947	0.0	0.9154568243921245	-0.7952004686859505	0.0	0.9043675765245063	-0.7954346649901184	0.0	0.8844802377348333	-0.7887545458922958	0.0	0.9285508430046006	-0.5857310930001208	0.0	0.9168396644762558	-0.6793896145351979	0.0	0.8955749582005802	-0.7706220688203376	0.0	0.9250837569454669	-0.7925225331453266	0.0	0.9239680359664941	-0.7889300034070943	0.0	0.8912172336951635	-0.7833453260925656	0.0	0.9072747370766902	-0.4486889174971103	0.0	0.9115969110640489	-0.3887985447234912	0.0	0.9148919067901518	-0.42196161236372387	0.0	0.8766021660165039	-0.4702561975572286	0.0	0.8699574618540793	-0.5364551295846772	0.0	0.8905131800013106	-0.5941334143604392	0.0	0.9342590120279289	-0.4690507292883638	0.0	0.9461984428620429	-0.5276639945871776	0.0	0.9677196221848128	-0.5803015674480277	0.0
132	4.429530201342282	0.9130911244250682	-0.5875906416748785	0.0	0.8971569806763413	-0.5901416443236358	0.0	0.8941817470372215	-0.6819956954263208	0.0	0.8879981111883799	-0.777883147069291	0.0	0.9150555619614467	-0.7976601620130181	0.0	0.9044284767965446	-0.7978605629046158	0.0	0.8843022639115035	-0.7912993187485267	0.0	0.9279907982084006	-0.5892945452569224	0.0	0.9163779165457059	-0.6821513374426342	0.0	0.8954714878053123	-0.77314802507998	0.0	0.9254159157908768	-0.7950036412726259	0.0	0.9239641129914322	-0.7909852050649497	0.0	0.8909805734734068	-0.7860122945479733	0.0	0.9073506836920952	-0.45163099962828535	0.0	0.9115302098325297	-0.39193026588021784	0.0	0.9151675348587925	-0.42489254631103207	0.0	0.8764037706319192	-0.4731025141745843	0.0	0.8692490509362114	-0.5390449077472944	0.0	0.8895649866586895	-0.597009944130049	0.0	0.934207049588581	-0.4723602070507642	0.0	0.9467932705763162	-0.5312063057252431	0.0	0.9702548726460596	-0.5834849999446644	0.0
133	4.4630872483221475	0.9126159206204838	-0.5905754509121499	0.0	0.8968319577638251	-0.5930737887542992	0.0	0.893833545634706	-0.6846681034189892	0.0	0.8877622823575934	-0.7803352772961576	0.0	0.9148155259801911	-0.799866278456494	0.0	0.9044703253229104	-0.8000784238202598	0.0	0.8840919445242933	-0.793690069193752	0.0	0.9276353094910351	-0.5925124039578878	0.0	0.9160087529097201	-0.6848314642959364	0.0	0.8954198289567897	-0.775440141108794	0.0	0.9260909774678583	-0.7972469604226965	0.0	0.9242684508908215	-0.7928017703761759	0.0	0.8906454365293405	-0.7884557167538967	0.0	0.9074284543678675	-0.45433279207074867	0.0	0.9115178788383769	-0.3948254850490658	0.0	0.915457514823106	-0.4275903651497929	0.0	0.876257737932083	-0.47571650140316324	0.0	0.8689449346981908	-0.5413196215084225	0.0	0.8887066884607336	-0.5997314280034893	0.0	0.9340314039638691	-0.4753686579511766	0.0	0.9470280400944532	-0.5347667787857537	0.0	0.9719528044574319	-0.587129356817689	0.0
134	4.496644295302014	0.9122964369671721	-0.5928203476346503	0.0	0.8965854531942359	-0.5952651692764902	0.0	0.8935552016416751	-0.6868068154260107	0.0	0.8876289834153129	-0.7822348099380856	0.0	0.9146327908914701	-0.8015733588988486	0.0	0.9043747615558094	-0.8017966513967091	0.0	0.8839078028422734	-0.7955622002962893	0.0	0.927445106029194	-0.5949254644335921	0.0	0.915789583434423	-0.6869998727275965	0.0	0.8954161111685758	-0.7771780647620509	0.0	0.9268026408473806	-0.7990137048777581	0.0	0.9247136391205892	-0.7942083079001079	0.0	0.8903143920610695	-0.7903264178403382	0.0	0.9074473483291955	-0.4564532836052984	0.0	0.9115522522311222	-0.39706192547745517	0.0	0.9157007753367526	-0.429709360558014	0.0	0.8761675594237646	-0.47777453671883185	0.0	0.8690287327043413	-0.5430804926235799	0.0	0.8878928310190051	-0.60193971810701	0.0	0.9337865942170717	-0.4776615648924959	0.0	0.9468635020640743	-0.5377810064333374	0.0	0.9725276816896153	-0.5906664036598052	0.0
135	4.530201342281879	0.9121098803239244	-0.5940402194494663	0.0	0.8963633054722031	-0.5963907497448621	0.0	0.8933774744326198	-0.6880718402826083	0.0	0.8876267074137031	-0.7832999612991937	0.0	0.9145342068335047	-0.8025572321661106	0.0	0.9041986938295051	-0.8027957356355092	0.0	0.8838228262341784	-0.7966467603126649	0.0	0.9273624621877369	-0.5961486537858591	0.0	0.9157493262187791	-0.6882688491978436	0.0	0.8954592691795378	-0.7781186158485699	0.0	0.9273028223603904	-0.8000750099481184	0.0	0.9251644686700983	-0.7950408831572405	0.0	0.8900847988030071	-0.7913561109945638	0.0	0.9073618771735056	-0.4577140377957098	0.0	0.9116321628621672	-0.3983235777379073	0.0	0.9158483670283545	-0.4309691856584508	0.0	0.8761452504350675	-0.4790127375426135	0.0	0.8693392147243911	-0.5441919787646227	0.0	0.8871462116749949	-0.6033775546283816	0.0	0.9335061091856299	-0.4789447564884712	0.0	0.9463034200568406	-0.5397862095483481	0.0	0.971793338618823	-0.5935469255946823	0.0
136	4.563758389261745	0.9120502606816628	-0.5940677085089437	0.0	0.8961739727118078	-0.5962273839323285	0.0	0.8933039588237832	-0.6882806723224875	0.0	0.8877848222375995	-0.7834075781847818	0.0	0.9146262926159469	-0.8026548512193091	0.0	0.9040791717755345	-0.8029363252268465	0.0	0.8838790147899596	-0.7968312879512315	0.0	0.927367753703959	-0.5959548574018038	0.0	0.9158872003719188	-0.6884350401147641	0.0	0.8955358962234831	-0.7781396093188837	0.0	0.9274933220850422	-0.800242507149618	0.0	0.9255439689602202	-0.7951445369820824	0.0	0.889995727919727	-0.7914201316889771	0.0	0.9071668434832864	-0.4579509604722815	0.0	0.9117652964639055	-0.39845446499329573	0.0	0.9158614264174385	-0.4312008383814457	0.0	0.8761869060643549	-0.4792816787932197	0.0	0.8696503897577721	-0.5445391760368552	0.0	0.886479283618988	-0.6039213768060538	0.0	0.9331703012346878	-0.4790751871287218	0.0	0.9453616256402054	-0.5404976145916197	0.0	0.9697151096244362	-0.5953188743067824	0.0
137	4.597315436241611	0.9121676219631046	-0.5928641366202746	0.0	0.8961058620490434	-0.5947152528021439	0.0	0.8933215541017885	-0.6874417133481935	0.0	0.8881116712957839	-0.7826119917076291	0.0	0.9150351995993173	-0.8018273285197275	0.0	0.9041419383853531	-0.8021881038477615	0.0	0.8840648050240455	-0.7961721811075435	0.0	0.9275138659959508	-0.5943342757070751	0.0	0.916155733399747	-0.6875433416025531	0.0	0.895622370430671	-0.7772666621707113	0.0	0.927467497968297	-0.7994350535465158	0.0	0.9258674627073159	-0.7944193916716115	0.0	0.8900155485116232	-0.790561406771516	0.0	0.9068900741631204	-0.4571539457536363	0.0	0.9119446791522073	-0.3974481171641023	0.0	0.9157232762203993	-0.43036175576580615	0.0	0.8762591763574985	-0.47858533217309435	0.0	0.8697816509702501	-0.5440464119925792	0.0	0.8858873551448235	-0.6035484612774665	0.0	0.932730669921508	-0.4780913789480946	0.0	0.9440570742852835	-0.5398468818124555	0.0	0.9664506225076498	-0.5957235543829974	0.0
138	4.630872483221476	0.9125444239338851	-0.5905719289873088	0.0	0.8962797608423051	-0.5920016413501991	0.0	0.8934297020710231	-0.6857222133008972	0.0	0.8885666180355235	-0.7810931029234912	0.0	0.9158641386655741	-0.8001612074534218	0.0	0.9044820040087419	-0.800652114151336	0.0	0.884307027615893	-0.7948284304447604	0.0	0.9278900903521978	-0.5915244938967146	0.0	0.9164546890196236	-0.6858298160857045	0.0	0.8957177763464658	-0.7756393306241279	0.0	0.9274674066472405	-0.7977156067272003	0.0	0.9262467828140161	-0.7928706496426076	0.0	0.890075633911326	-0.7889468712614957	0.0	0.9065653779269887	-0.4554566328566909	0.0	0.912125388548104	-0.3954436484676072	0.0	0.9154527109847014	-0.4285452667587638	0.0	0.8763107650405186	-0.47706296585979846	0.0	0.8696778830223134	-0.5427522842825594	0.0	0.885393854788006	-0.6023111155178075	0.0	0.9321720009955216	-0.47620203994774396	0.0	0.942429431047129	-0.5379925062746723	0.0	0.9623615382114392	-0.594768471502686	0.0
139	4.6644295302013425	0.9132031796592194	-0.5875507343398882	0.0	0.8967567510995753	-0.5884429186952245	0.0	0.8936466497018559	-0.6833717576470661	0.0	0.889059502874213	-0.7790689557407383	0.0	0.9170916984842511	-0.797823772305936	0.0	0.9051092833010083	-0.7985301901087003	0.0	0.8844982017008433	-0.7929663567835566	0.0	0.9285236341974152	-0.5879649430718746	0.0	0.9166894182688595	-0.6835897301234616	0.0	0.8958379907563182	-0.7734410054760801	0.0	0.9276701975903907	-0.7952745225608262	0.0	0.9267586625043656	-0.7906265784849297	0.0	0.8901116816938967	-0.7867921383425539	0.0	0.9062286768636109	-0.4531046869047062	0.0	0.9122498514823539	-0.39273180639202837	0.0	0.9150915169631973	-0.4260045327232683	0.0	0.8762886106453025	-0.4749386902930868	0.0	0.8694010340278929	-0.5408334890821402	0.0	0.8850447322635232	-0.6003367979459667	0.0	0.9315409687132309	-0.4737215014715419	0.0	0.9405536256249561	-0.5352876480134916	0.0	0.9579338975612629	-0.5926972988825268	0.0
